<svg id="my-svg" width="100%" xmlns="http://www.w3.org/2000/svg" xmlns:xlink="http://www.w3.org/1999/xlink" style="max-width: 3793.31px; background-color: transparent;" viewBox="-8 -8 3793.3125 464" role="graphics-document document" aria-roledescription="flowchart-v2"><style>#my-svg{font-family:"trebuchet ms",verdana,arial,sans-serif;font-size:16px;fill:#000000;}#my-svg .error-icon{fill:#552222;}#my-svg .error-text{fill:#552222;stroke:#552222;}#my-svg .edge-thickness-normal{stroke-width:2px;}#my-svg .edge-thickness-thick{stroke-width:3.5px;}#my-svg .edge-pattern-solid{stroke-dasharray:0;}#my-svg .edge-pattern-dashed{stroke-dasharray:3;}#my-svg .edge-pattern-dotted{stroke-dasharray:2;}#my-svg .marker{fill:#666;stroke:#666;}#my-svg .marker.cross{stroke:#666;}#my-svg svg{font-family:"trebuchet ms",verdana,arial,sans-serif;font-size:16px;}#my-svg .label{font-family:"trebuchet ms",verdana,arial,sans-serif;color:#000000;}#my-svg .cluster-label text{fill:#333;}#my-svg .cluster-label span,#my-svg p{color:#333;}#my-svg .label text,#my-svg span,#my-svg p{fill:#000000;color:#000000;}#my-svg .node rect,#my-svg .node circle,#my-svg .node ellipse,#my-svg .node polygon,#my-svg .node path{fill:#eee;stroke:#999;stroke-width:1px;}#my-svg .flowchart-label text{text-anchor:middle;}#my-svg .node .katex path{fill:#000;stroke:#000;stroke-width:1px;}#my-svg .node .label{text-align:center;}#my-svg .node.clickable{cursor:pointer;}#my-svg .arrowheadPath{fill:#333333;}#my-svg .edgePath .path{stroke:#666;stroke-width:2.0px;}#my-svg .flowchart-link{stroke:#666;fill:none;}#my-svg .edgeLabel{background-color:white;text-align:center;}#my-svg .edgeLabel rect{opacity:0.5;background-color:white;fill:white;}#my-svg .labelBkg{background-color:rgba(255, 255, 255, 0.5);}#my-svg .cluster rect{fill:hsl(0, 0%, 98.9215686275%);stroke:#707070;stroke-width:1px;}#my-svg .cluster text{fill:#333;}#my-svg .cluster span,#my-svg p{color:#333;}#my-svg div.mermaidTooltip{position:absolute;text-align:center;max-width:200px;padding:2px;font-family:"trebuchet ms",verdana,arial,sans-serif;font-size:12px;background:hsl(-160, 0%, 93.3333333333%);border:1px solid #707070;border-radius:2px;pointer-events:none;z-index:100;}#my-svg .flowchartTitleText{text-anchor:middle;font-size:18px;fill:#000000;}#my-svg :root{--mermaid-font-family:"trebuchet ms",verdana,arial,sans-serif;}</style><g><marker id="my-svg_flowchart-pointEnd" class="marker flowchart" viewBox="0 0 10 10" refX="6" refY="5" markerUnits="userSpaceOnUse" markerWidth="12" markerHeight="12" orient="auto"><path d="M 0 0 L 10 5 L 0 10 z" class="arrowMarkerPath" style="stroke-width: 1; stroke-dasharray: 1, 0;"/></marker><marker id="my-svg_flowchart-pointStart" class="marker flowchart" viewBox="0 0 10 10" refX="4.5" refY="5" markerUnits="userSpaceOnUse" markerWidth="12" markerHeight="12" orient="auto"><path d="M 0 5 L 10 10 L 10 0 z" class="arrowMarkerPath" style="stroke-width: 1; stroke-dasharray: 1, 0;"/></marker><marker id="my-svg_flowchart-circleEnd" class="marker flowchart" viewBox="0 0 10 10" refX="11" refY="5" markerUnits="userSpaceOnUse" markerWidth="11" markerHeight="11" orient="auto"><circle cx="5" cy="5" r="5" class="arrowMarkerPath" style="stroke-width: 1; stroke-dasharray: 1, 0;"/></marker><marker id="my-svg_flowchart-circleStart" class="marker flowchart" viewBox="0 0 10 10" refX="-1" refY="5" markerUnits="userSpaceOnUse" markerWidth="11" markerHeight="11" orient="auto"><circle cx="5" cy="5" r="5" class="arrowMarkerPath" style="stroke-width: 1; stroke-dasharray: 1, 0;"/></marker><marker id="my-svg_flowchart-crossEnd" class="marker cross flowchart" viewBox="0 0 11 11" refX="12" refY="5.2" markerUnits="userSpaceOnUse" markerWidth="11" markerHeight="11" orient="auto"><path d="M 1,1 l 9,9 M 10,1 l -9,9" class="arrowMarkerPath" style="stroke-width: 2; stroke-dasharray: 1, 0;"/></marker><marker id="my-svg_flowchart-crossStart" class="marker cross flowchart" viewBox="0 0 11 11" refX="-1" refY="5.2" markerUnits="userSpaceOnUse" markerWidth="11" markerHeight="11" orient="auto"><path d="M 1,1 l 9,9 M 10,1 l -9,9" class="arrowMarkerPath" style="stroke-width: 2; stroke-dasharray: 1, 0;"/></marker><g class="root"><g class="clusters"/><g class="edgePaths"><path d="M2610.067,33L2583.588,37.167C2557.11,41.333,2504.152,49.667,2477.674,57.117C2451.195,64.567,2451.195,71.133,2451.195,74.417L2451.195,77.7" id="L-A-B-0" class="edge-thickness-normal edge-pattern-solid flowchart-link LS-A LE-B" style="fill:none;" marker-end="url(#my-svg_flowchart-pointEnd)"/><path d="M2599.359,19.501L2352.273,25.918C2105.188,32.334,1611.016,45.167,1363.93,54.867C1116.844,64.567,1116.844,71.133,1116.844,74.417L1116.844,77.7" id="L-A-C-0" class="edge-thickness-normal edge-pattern-solid flowchart-link LS-A LE-C" style="fill:none;" marker-end="url(#my-svg_flowchart-pointEnd)"/><path d="M2819.777,33L2846.256,37.167C2872.734,41.333,2925.691,49.667,2952.17,57.117C2978.648,64.567,2978.648,71.133,2978.648,74.417L2978.648,77.7" id="L-A-D-0" class="edge-thickness-normal edge-pattern-solid flowchart-link LS-A LE-D" style="fill:none;" marker-end="url(#my-svg_flowchart-pointEnd)"/><path d="M2830.484,22.251L2950.202,28.209C3069.919,34.168,3309.354,46.084,3429.072,55.325C3548.789,64.567,3548.789,71.133,3548.789,74.417L3548.789,77.7" id="L-A-E-0" class="edge-thickness-normal edge-pattern-solid flowchart-link LS-A LE-E" style="fill:none;" marker-end="url(#my-svg_flowchart-pointEnd)"/><path d="M2451.195,116L2451.195,120.167C2451.195,124.333,2451.195,132.667,2451.195,140.117C2451.195,147.567,2451.195,154.133,2451.195,157.417L2451.195,160.7" id="L-B-B1-0" class="edge-thickness-normal edge-pattern-solid flowchart-link LS-B LE-B1" style="fill:none;" marker-end="url(#my-svg_flowchart-pointEnd)"/><path d="M2451.195,199L2451.195,203.167C2451.195,207.333,2451.195,215.667,2451.195,223.117C2451.195,230.567,2451.195,237.133,2451.195,240.417L2451.195,243.7" id="L-B1-B2-0" class="edge-thickness-normal edge-pattern-solid flowchart-link LS-B1 LE-B2" style="fill:none;" marker-end="url(#my-svg_flowchart-pointEnd)"/><path d="M1116.844,116L1116.844,120.167C1116.844,124.333,1116.844,132.667,1116.844,140.117C1116.844,147.567,1116.844,154.133,1116.844,157.417L1116.844,160.7" id="L-C-C1-0" class="edge-thickness-normal edge-pattern-solid flowchart-link LS-C LE-C1" style="fill:none;" marker-end="url(#my-svg_flowchart-pointEnd)"/><path d="M1042.648,185.785L898.805,192.154C754.961,198.523,467.273,211.262,323.43,220.914C179.586,230.567,179.586,237.133,179.586,240.417L179.586,243.7" id="L-C1-C2-0" class="edge-thickness-normal edge-pattern-solid flowchart-link LS-C1 LE-C2" style="fill:none;" marker-end="url(#my-svg_flowchart-pointEnd)"/><path d="M1042.648,188.319L966.828,194.266C891.008,200.213,739.367,212.106,663.547,221.337C587.727,230.567,587.727,237.133,587.727,240.417L587.727,243.7" id="L-C1-C3-0" class="edge-thickness-normal edge-pattern-solid flowchart-link LS-C1 LE-C3" style="fill:none;" marker-end="url(#my-svg_flowchart-pointEnd)"/><path d="M1116.844,199L1116.844,203.167C1116.844,207.333,1116.844,215.667,1116.844,223.117C1116.844,230.567,1116.844,237.133,1116.844,240.417L1116.844,243.7" id="L-C1-C4-0" class="edge-thickness-normal edge-pattern-solid flowchart-link LS-C1 LE-C4" style="fill:none;" marker-end="url(#my-svg_flowchart-pointEnd)"/><path d="M1191.039,188.172L1269.155,194.143C1347.271,200.114,1503.503,212.057,1581.618,221.312C1659.734,230.567,1659.734,237.133,1659.734,240.417L1659.734,243.7" id="L-C1-C5-0" class="edge-thickness-normal edge-pattern-solid flowchart-link LS-C1 LE-C5" style="fill:none;" marker-end="url(#my-svg_flowchart-pointEnd)"/><path d="M1191.039,185.667L1340.734,192.056C1490.43,198.444,1789.82,211.222,1939.516,220.894C2089.211,230.567,2089.211,237.133,2089.211,240.417L2089.211,243.7" id="L-C1-C6-0" class="edge-thickness-normal edge-pattern-solid flowchart-link LS-C1 LE-C6" style="fill:none;" marker-end="url(#my-svg_flowchart-pointEnd)"/><path d="M179.586,282L179.586,286.167C179.586,290.333,179.586,298.667,179.586,306.117C179.586,313.567,179.586,320.133,179.586,323.417L179.586,326.7" id="L-C2-C2a-0" class="edge-thickness-normal edge-pattern-solid flowchart-link LS-C2 LE-C2a" style="fill:none;" marker-end="url(#my-svg_flowchart-pointEnd)"/><path d="M587.727,282L587.727,286.167C587.727,290.333,587.727,298.667,587.727,306.117C587.727,313.567,587.727,320.133,587.727,323.417L587.727,326.7" id="L-C3-C3a-0" class="edge-thickness-normal edge-pattern-solid flowchart-link LS-C3 LE-C3a" style="fill:none;" marker-end="url(#my-svg_flowchart-pointEnd)"/><path d="M1116.844,282L1116.844,286.167C1116.844,290.333,1116.844,298.667,1116.844,306.117C1116.844,313.567,1116.844,320.133,1116.844,323.417L1116.844,326.7" id="L-C4-C4a-0" class="edge-thickness-normal edge-pattern-solid flowchart-link LS-C4 LE-C4a" style="fill:none;" marker-end="url(#my-svg_flowchart-pointEnd)"/><path d="M1659.734,282L1659.734,286.167C1659.734,290.333,1659.734,298.667,1659.734,306.117C1659.734,313.567,1659.734,320.133,1659.734,323.417L1659.734,326.7" id="L-C5-C5a-0" class="edge-thickness-normal edge-pattern-solid flowchart-link LS-C5 LE-C5a" style="fill:none;" marker-end="url(#my-svg_flowchart-pointEnd)"/><path d="M2089.211,282L2089.211,286.167C2089.211,290.333,2089.211,298.667,2089.211,306.117C2089.211,313.567,2089.211,320.133,2089.211,323.417L2089.211,326.7" id="L-C6-C6a-0" class="edge-thickness-normal edge-pattern-solid flowchart-link LS-C6 LE-C6a" style="fill:none;" marker-end="url(#my-svg_flowchart-pointEnd)"/><path d="M2978.648,116L2978.648,120.167C2978.648,124.333,2978.648,132.667,2978.648,140.117C2978.648,147.567,2978.648,154.133,2978.648,157.417L2978.648,160.7" id="L-D-D1-0" class="edge-thickness-normal edge-pattern-solid flowchart-link LS-D LE-D1" style="fill:none;" marker-end="url(#my-svg_flowchart-pointEnd)"/><path d="M2978.648,199L2978.648,203.167C2978.648,207.333,2978.648,215.667,2978.648,223.117C2978.648,230.567,2978.648,237.133,2978.648,240.417L2978.648,243.7" id="L-D1-D2-0" class="edge-thickness-normal edge-pattern-solid flowchart-link LS-D1 LE-D2" style="fill:none;" marker-end="url(#my-svg_flowchart-pointEnd)"/><path d="M3548.789,116L3548.789,120.167C3548.789,124.333,3548.789,132.667,3548.789,140.117C3548.789,147.567,3548.789,154.133,3548.789,157.417L3548.789,160.7" id="L-E-E1-0" class="edge-thickness-normal edge-pattern-solid flowchart-link LS-E LE-E1" style="fill:none;" marker-end="url(#my-svg_flowchart-pointEnd)"/><path d="M3548.789,199L3548.789,203.167C3548.789,207.333,3548.789,215.667,3548.789,223.117C3548.789,230.567,3548.789,237.133,3548.789,240.417L3548.789,243.7" id="L-E1-E2-0" class="edge-thickness-normal edge-pattern-solid flowchart-link LS-E1 LE-E2" style="fill:none;" marker-end="url(#my-svg_flowchart-pointEnd)"/><path d="M179.586,365L179.586,369.167C179.586,373.333,179.586,381.667,179.586,389.117C179.586,396.567,179.586,403.133,179.586,406.417L179.586,409.7" id="L-C2a-F-0" class="edge-thickness-normal edge-pattern-solid flowchart-link LS-C2a LE-F" style="fill:none;" marker-end="url(#my-svg_flowchart-pointEnd)"/><path d="M587.727,365L587.727,369.167C587.727,373.333,587.727,381.667,587.727,389.117C587.727,396.567,587.727,403.133,587.727,406.417L587.727,409.7" id="L-C3a-G-0" class="edge-thickness-normal edge-pattern-solid flowchart-link LS-C3a LE-G" style="fill:none;" marker-end="url(#my-svg_flowchart-pointEnd)"/><path d="M1116.844,365L1116.844,369.167C1116.844,373.333,1116.844,381.667,1116.844,389.117C1116.844,396.567,1116.844,403.133,1116.844,406.417L1116.844,409.7" id="L-C4a-H-0" class="edge-thickness-normal edge-pattern-solid flowchart-link LS-C4a LE-H" style="fill:none;" marker-end="url(#my-svg_flowchart-pointEnd)"/><path d="M1659.734,365L1659.734,369.167C1659.734,373.333,1659.734,381.667,1659.734,389.117C1659.734,396.567,1659.734,403.133,1659.734,406.417L1659.734,409.7" id="L-C5a-I-0" class="edge-thickness-normal edge-pattern-solid flowchart-link LS-C5a LE-I" style="fill:none;" marker-end="url(#my-svg_flowchart-pointEnd)"/><path d="M2089.211,365L2089.211,369.167C2089.211,373.333,2089.211,381.667,2089.211,389.117C2089.211,396.567,2089.211,403.133,2089.211,406.417L2089.211,409.7" id="L-C6a-J-0" class="edge-thickness-normal edge-pattern-solid flowchart-link LS-C6a LE-J" style="fill:none;" marker-end="url(#my-svg_flowchart-pointEnd)"/><path d="M2451.195,282L2451.195,286.167C2451.195,290.333,2451.195,298.667,2451.195,306.117C2451.195,313.567,2451.195,320.133,2451.195,323.417L2451.195,326.7" id="L-B2-K-0" class="edge-thickness-normal edge-pattern-solid flowchart-link LS-B2 LE-K" style="fill:none;" marker-end="url(#my-svg_flowchart-pointEnd)"/><path d="M2978.648,282L2978.648,286.167C2978.648,290.333,2978.648,298.667,2978.648,306.117C2978.648,313.567,2978.648,320.133,2978.648,323.417L2978.648,326.7" id="L-D2-L-0" class="edge-thickness-normal edge-pattern-solid flowchart-link LS-D2 LE-L" style="fill:none;" marker-end="url(#my-svg_flowchart-pointEnd)"/><path d="M3548.789,282L3548.789,286.167C3548.789,290.333,3548.789,298.667,3548.789,306.117C3548.789,313.567,3548.789,320.133,3548.789,323.417L3548.789,326.7" id="L-E2-M-0" class="edge-thickness-normal edge-pattern-solid flowchart-link LS-E2 LE-M" style="fill:none;" marker-end="url(#my-svg_flowchart-pointEnd)"/></g><g class="edgeLabels"><g class="edgeLabel"><g class="label" transform="translate(0, 0)"><foreignObject width="0" height="0"><div xmlns="http://www.w3.org/1999/xhtml" style="display: inline-block; white-space: nowrap;"><span class="edgeLabel"></span></div></foreignObject></g></g><g class="edgeLabel"><g class="label" transform="translate(0, 0)"><foreignObject width="0" height="0"><div xmlns="http://www.w3.org/1999/xhtml" style="display: inline-block; white-space: nowrap;"><span class="edgeLabel"></span></div></foreignObject></g></g><g class="edgeLabel"><g class="label" transform="translate(0, 0)"><foreignObject width="0" height="0"><div xmlns="http://www.w3.org/1999/xhtml" style="display: inline-block; white-space: nowrap;"><span class="edgeLabel"></span></div></foreignObject></g></g><g class="edgeLabel"><g class="label" transform="translate(0, 0)"><foreignObject width="0" height="0"><div xmlns="http://www.w3.org/1999/xhtml" style="display: inline-block; white-space: nowrap;"><span class="edgeLabel"></span></div></foreignObject></g></g><g class="edgeLabel"><g class="label" transform="translate(0, 0)"><foreignObject width="0" height="0"><div xmlns="http://www.w3.org/1999/xhtml" style="display: inline-block; white-space: nowrap;"><span class="edgeLabel"></span></div></foreignObject></g></g><g class="edgeLabel"><g class="label" transform="translate(0, 0)"><foreignObject width="0" height="0"><div xmlns="http://www.w3.org/1999/xhtml" style="display: inline-block; white-space: nowrap;"><span class="edgeLabel"></span></div></foreignObject></g></g><g class="edgeLabel"><g class="label" transform="translate(0, 0)"><foreignObject width="0" height="0"><div xmlns="http://www.w3.org/1999/xhtml" style="display: inline-block; white-space: nowrap;"><span class="edgeLabel"></span></div></foreignObject></g></g><g class="edgeLabel"><g class="label" transform="translate(0, 0)"><foreignObject width="0" height="0"><div xmlns="http://www.w3.org/1999/xhtml" style="display: inline-block; white-space: nowrap;"><span class="edgeLabel"></span></div></foreignObject></g></g><g class="edgeLabel"><g class="label" transform="translate(0, 0)"><foreignObject width="0" height="0"><div xmlns="http://www.w3.org/1999/xhtml" style="display: inline-block; white-space: nowrap;"><span class="edgeLabel"></span></div></foreignObject></g></g><g class="edgeLabel"><g class="label" transform="translate(0, 0)"><foreignObject width="0" height="0"><div xmlns="http://www.w3.org/1999/xhtml" style="display: inline-block; white-space: nowrap;"><span class="edgeLabel"></span></div></foreignObject></g></g><g class="edgeLabel"><g class="label" transform="translate(0, 0)"><foreignObject width="0" height="0"><div xmlns="http://www.w3.org/1999/xhtml" style="display: inline-block; white-space: nowrap;"><span class="edgeLabel"></span></div></foreignObject></g></g><g class="edgeLabel"><g class="label" transform="translate(0, 0)"><foreignObject width="0" height="0"><div xmlns="http://www.w3.org/1999/xhtml" style="display: inline-block; white-space: nowrap;"><span class="edgeLabel"></span></div></foreignObject></g></g><g class="edgeLabel"><g class="label" transform="translate(0, 0)"><foreignObject width="0" height="0"><div xmlns="http://www.w3.org/1999/xhtml" style="display: inline-block; white-space: nowrap;"><span class="edgeLabel"></span></div></foreignObject></g></g><g class="edgeLabel"><g class="label" transform="translate(0, 0)"><foreignObject width="0" height="0"><div xmlns="http://www.w3.org/1999/xhtml" style="display: inline-block; white-space: nowrap;"><span class="edgeLabel"></span></div></foreignObject></g></g><g class="edgeLabel"><g class="label" transform="translate(0, 0)"><foreignObject width="0" height="0"><div xmlns="http://www.w3.org/1999/xhtml" style="display: inline-block; white-space: nowrap;"><span class="edgeLabel"></span></div></foreignObject></g></g><g class="edgeLabel"><g class="label" transform="translate(0, 0)"><foreignObject width="0" height="0"><div xmlns="http://www.w3.org/1999/xhtml" style="display: inline-block; white-space: nowrap;"><span class="edgeLabel"></span></div></foreignObject></g></g><g class="edgeLabel"><g class="label" transform="translate(0, 0)"><foreignObject width="0" height="0"><div xmlns="http://www.w3.org/1999/xhtml" style="display: inline-block; white-space: nowrap;"><span class="edgeLabel"></span></div></foreignObject></g></g><g class="edgeLabel"><g class="label" transform="translate(0, 0)"><foreignObject width="0" height="0"><div xmlns="http://www.w3.org/1999/xhtml" style="display: inline-block; white-space: nowrap;"><span class="edgeLabel"></span></div></foreignObject></g></g><g class="edgeLabel"><g class="label" transform="translate(0, 0)"><foreignObject width="0" height="0"><div xmlns="http://www.w3.org/1999/xhtml" style="display: inline-block; white-space: nowrap;"><span class="edgeLabel"></span></div></foreignObject></g></g><g class="edgeLabel"><g class="label" transform="translate(0, 0)"><foreignObject width="0" height="0"><div xmlns="http://www.w3.org/1999/xhtml" style="display: inline-block; white-space: nowrap;"><span class="edgeLabel"></span></div></foreignObject></g></g><g class="edgeLabel"><g class="label" transform="translate(0, 0)"><foreignObject width="0" height="0"><div xmlns="http://www.w3.org/1999/xhtml" style="display: inline-block; white-space: nowrap;"><span class="edgeLabel"></span></div></foreignObject></g></g><g class="edgeLabel"><g class="label" transform="translate(0, 0)"><foreignObject width="0" height="0"><div xmlns="http://www.w3.org/1999/xhtml" style="display: inline-block; white-space: nowrap;"><span class="edgeLabel"></span></div></foreignObject></g></g><g class="edgeLabel"><g class="label" transform="translate(0, 0)"><foreignObject width="0" height="0"><div xmlns="http://www.w3.org/1999/xhtml" style="display: inline-block; white-space: nowrap;"><span class="edgeLabel"></span></div></foreignObject></g></g><g class="edgeLabel"><g class="label" transform="translate(0, 0)"><foreignObject width="0" height="0"><div xmlns="http://www.w3.org/1999/xhtml" style="display: inline-block; white-space: nowrap;"><span class="edgeLabel"></span></div></foreignObject></g></g><g class="edgeLabel"><g class="label" transform="translate(0, 0)"><foreignObject width="0" height="0"><div xmlns="http://www.w3.org/1999/xhtml" style="display: inline-block; white-space: nowrap;"><span class="edgeLabel"></span></div></foreignObject></g></g><g class="edgeLabel"><g class="label" transform="translate(0, 0)"><foreignObject width="0" height="0"><div xmlns="http://www.w3.org/1999/xhtml" style="display: inline-block; white-space: nowrap;"><span class="edgeLabel"></span></div></foreignObject></g></g><g class="edgeLabel"><g class="label" transform="translate(0, 0)"><foreignObject width="0" height="0"><div xmlns="http://www.w3.org/1999/xhtml" style="display: inline-block; white-space: nowrap;"><span class="edgeLabel"></span></div></foreignObject></g></g><g class="edgeLabel"><g class="label" transform="translate(0, 0)"><foreignObject width="0" height="0"><div xmlns="http://www.w3.org/1999/xhtml" style="display: inline-block; white-space: nowrap;"><span class="edgeLabel"></span></div></foreignObject></g></g><g class="edgeLabel"><g class="label" transform="translate(0, 0)"><foreignObject width="0" height="0"><div xmlns="http://www.w3.org/1999/xhtml" style="display: inline-block; white-space: nowrap;"><span class="edgeLabel"></span></div></foreignObject></g></g></g><g class="nodes"><g class="node default default flowchart-label" id="flowchart-A-0" data-node="true" data-id="A" transform="translate(2714.921875, 16.5)"><rect class="basic label-container" style="" rx="0" ry="0" x="-115.5625" y="-16.5" width="231.125" height="33"/><g class="label" style="" transform="translate(-108.0625, -9)"><rect/><foreignObject width="216.125" height="18"><div xmlns="http://www.w3.org/1999/xhtml" style="display: inline-block; white-space: nowrap;"><span class="nodeLabel">Co chcesz zbadać lub ocenić?</span></div></foreignObject></g></g><g class="node default default flowchart-label" id="flowchart-B-2" data-node="true" data-id="B" transform="translate(2451.1953125, 99.5)"><rect class="basic label-container" style="" rx="0" ry="0" x="-92.875" y="-16.5" width="185.75" height="33"/><g class="label" style="" transform="translate(-85.375, -9)"><rect/><foreignObject width="170.75" height="18"><div xmlns="http://www.w3.org/1999/xhtml" style="display: inline-block; white-space: nowrap;"><span class="nodeLabel">Dokument elektroniczny</span></div></foreignObject></g></g><g class="node default default flowchart-label" id="flowchart-C-4" data-node="true" data-id="C" transform="translate(1116.84375, 99.5)"><rect class="basic label-container" style="" rx="0" ry="0" x="-64.40625" y="-16.5" width="128.8125" height="33"/><g class="label" style="" transform="translate(-56.90625, -9)"><rect/><foreignObject width="113.8125" height="18"><div xmlns="http://www.w3.org/1999/xhtml" style="display: inline-block; white-space: nowrap;"><span class="nodeLabel">Produkt cyfrowy</span></div></foreignObject></g></g><g class="node default default flowchart-label" id="flowchart-D-6" data-node="true" data-id="D" transform="translate(2978.6484375, 99.5)"><rect class="basic label-container" style="" rx="0" ry="0" x="-167.125" y="-16.5" width="334.25" height="33"/><g class="label" style="" transform="translate(-159.625, -9)"><rect/><foreignObject width="319.25" height="18"><div xmlns="http://www.w3.org/1999/xhtml" style="display: inline-block; white-space: nowrap;"><span class="nodeLabel">Usługa publiczna z komponentami cyfrowymi</span></div></foreignObject></g></g><g class="node default default flowchart-label" id="flowchart-E-8" data-node="true" data-id="E" transform="translate(3548.7890625, 99.5)"><rect class="basic label-container" style="" rx="0" ry="0" x="-50.1875" y="-16.5" width="100.375" height="33"/><g class="label" style="" transform="translate(-42.6875, -9)"><rect/><foreignObject width="85.375" height="18"><div xmlns="http://www.w3.org/1999/xhtml" style="display: inline-block; white-space: nowrap;"><span class="nodeLabel">Organizacja</span></div></foreignObject></g></g><g class="node default default flowchart-label" id="flowchart-B1-10" data-node="true" data-id="B1" transform="translate(2451.1953125, 182.5)"><rect class="basic label-container" style="" rx="0" ry="0" x="-185.8359375" y="-16.5" width="371.671875" height="33"/><g class="label" style="" transform="translate(-178.3359375, -9)"><rect/><foreignObject width="356.671875" height="18"><div xmlns="http://www.w3.org/1999/xhtml" style="display: inline-block; white-space: nowrap;"><span class="nodeLabel">Chcę ocenić dostępność lub zgodność dokumentu</span></div></foreignObject></g></g><g class="node default default flowchart-label" id="flowchart-B2-12" data-node="true" data-id="B2" transform="translate(2451.1953125, 265.5)"><rect class="basic label-container" style="" rx="0" ry="0" x="-136.015625" y="-16.5" width="272.03125" height="33"/><g class="label" style="" transform="translate(-128.515625, -9)"><rect/><foreignObject width="257.03125" height="18"><div xmlns="http://www.w3.org/1999/xhtml" style="display: inline-block; white-space: nowrap;"><span class="nodeLabel">Ocena dokumentów elektronicznych</span></div></foreignObject></g></g><g class="node default default flowchart-label" id="flowchart-C1-14" data-node="true" data-id="C1" transform="translate(1116.84375, 182.5)"><rect class="basic label-container" style="" rx="0" ry="0" x="-74.1953125" y="-16.5" width="148.390625" height="33"/><g class="label" style="" transform="translate(-66.6953125, -9)"><rect/><foreignObject width="133.390625" height="18"><div xmlns="http://www.w3.org/1999/xhtml" style="display: inline-block; white-space: nowrap;"><span class="nodeLabel">Co chcesz ustalić?</span></div></foreignObject></g></g><g class="node default default flowchart-label" id="flowchart-C2-16" data-node="true" data-id="C2" transform="translate(179.5859375, 265.5)"><rect class="basic label-container" style="" rx="0" ry="0" x="-179.5859375" y="-16.5" width="359.171875" height="33"/><g class="label" style="" transform="translate(-172.0859375, -9)"><rect/><foreignObject width="344.171875" height="18"><div xmlns="http://www.w3.org/1999/xhtml" style="display: inline-block; white-space: nowrap;"><span class="nodeLabel">Chcę szybko rozpoznać najważniejsze problemy</span></div></foreignObject></g></g><g class="node default default flowchart-label" id="flowchart-C3-18" data-node="true" data-id="C3" transform="translate(587.7265625, 265.5)"><rect class="basic label-container" style="" rx="0" ry="0" x="-153.796875" y="-16.5" width="307.59375" height="33"/><g class="label" style="" transform="translate(-146.296875, -9)"><rect/><foreignObject width="292.59375" height="18"><div xmlns="http://www.w3.org/1999/xhtml" style="display: inline-block; white-space: nowrap;"><span class="nodeLabel">Chcę określić aktualny poziom zgodności</span></div></foreignObject></g></g><g class="node default default flowchart-label" id="flowchart-C4-20" data-node="true" data-id="C4" transform="translate(1116.84375, 265.5)"><rect class="basic label-container" style="" rx="0" ry="0" x="-123.125" y="-16.5" width="246.25" height="33"/><g class="label" style="" transform="translate(-115.625, -9)"><rect/><foreignObject width="231.25" height="18"><div xmlns="http://www.w3.org/1999/xhtml" style="display: inline-block; white-space: nowrap;"><span class="nodeLabel">Chcę odebrać nowe rozwiązanie</span></div></foreignObject></g></g><g class="node default default flowchart-label" id="flowchart-C5-22" data-node="true" data-id="C5" transform="translate(1659.734375, 265.5)"><rect class="basic label-container" style="" rx="0" ry="0" x="-170.25" y="-16.5" width="340.5" height="33"/><g class="label" style="" transform="translate(-162.75, -9)"><rect/><foreignObject width="325.5" height="18"><div xmlns="http://www.w3.org/1999/xhtml" style="display: inline-block; white-space: nowrap;"><span class="nodeLabel">Chcę uzyskać kompleksową ocenę zgodności</span></div></foreignObject></g></g><g class="node default default flowchart-label" id="flowchart-C6-24" data-node="true" data-id="C6" transform="translate(2089.2109375, 265.5)"><rect class="basic label-container" style="" rx="0" ry="0" x="-154.25" y="-16.5" width="308.5" height="33"/><g class="label" style="" transform="translate(-146.75, -9)"><rect/><foreignObject width="293.5" height="18"><div xmlns="http://www.w3.org/1999/xhtml" style="display: inline-block; white-space: nowrap;"><span class="nodeLabel">Chcę stale obserwować stan dostępności</span></div></foreignObject></g></g><g class="node default default flowchart-label" id="flowchart-C2a-26" data-node="true" data-id="C2a" transform="translate(179.5859375, 348.5)"><rect class="basic label-container" style="" rx="0" ry="0" x="-91.9921875" y="-16.5" width="183.984375" height="33"/><g class="label" style="" transform="translate(-84.4921875, -9)"><rect/><foreignObject width="168.984375" height="18"><div xmlns="http://www.w3.org/1999/xhtml" style="display: inline-block; white-space: nowrap;"><span class="nodeLabel">Przegląd diagnostyczny</span></div></foreignObject></g></g><g class="node default default flowchart-label" id="flowchart-C3a-28" data-node="true" data-id="C3a" transform="translate(587.7265625, 348.5)"><rect class="basic label-container" style="" rx="0" ry="0" x="-127.5703125" y="-16.5" width="255.140625" height="33"/><g class="label" style="" transform="translate(-120.0703125, -9)"><rect/><foreignObject width="240.140625" height="18"><div xmlns="http://www.w3.org/1999/xhtml" style="display: inline-block; white-space: nowrap;"><span class="nodeLabel">Okresowa ocena stanu zgodności</span></div></foreignObject></g></g><g class="node default default flowchart-label" id="flowchart-C4a-30" data-node="true" data-id="C4a" transform="translate(1116.84375, 348.5)"><rect class="basic label-container" style="" rx="0" ry="0" x="-127.125" y="-16.5" width="254.25" height="33"/><g class="label" style="" transform="translate(-119.625, -9)"><rect/><foreignObject width="239.25" height="18"><div xmlns="http://www.w3.org/1999/xhtml" style="display: inline-block; white-space: nowrap;"><span class="nodeLabel">Ocena zgodności przed odbiorem</span></div></foreignObject></g></g><g class="node default default flowchart-label" id="flowchart-C5a-32" data-node="true" data-id="C5a" transform="translate(1659.734375, 348.5)"><rect class="basic label-container" style="" rx="0" ry="0" x="-66.203125" y="-16.5" width="132.40625" height="33"/><g class="label" style="" transform="translate(-58.703125, -9)"><rect/><foreignObject width="117.40625" height="18"><div xmlns="http://www.w3.org/1999/xhtml" style="display: inline-block; white-space: nowrap;"><span class="nodeLabel">Audyt zgodności</span></div></foreignObject></g></g><g class="node default default flowchart-label" id="flowchart-C6a-34" data-node="true" data-id="C6a" transform="translate(2089.2109375, 348.5)"><rect class="basic label-container" style="" rx="0" ry="0" x="-89.7734375" y="-16.5" width="179.546875" height="33"/><g class="label" style="" transform="translate(-82.2734375, -9)"><rect/><foreignObject width="164.546875" height="18"><div xmlns="http://www.w3.org/1999/xhtml" style="display: inline-block; white-space: nowrap;"><span class="nodeLabel">Monitoring dostępności</span></div></foreignObject></g></g><g class="node default default flowchart-label" id="flowchart-D1-36" data-node="true" data-id="D1" transform="translate(2978.6484375, 182.5)"><rect class="basic label-container" style="" rx="0" ry="0" x="-291.6171875" y="-16.5" width="583.234375" height="33"/><g class="label" style="" transform="translate(-284.1171875, -9)"><rect/><foreignObject width="568.234375" height="18"><div xmlns="http://www.w3.org/1999/xhtml" style="display: inline-block; white-space: nowrap;"><span class="nodeLabel">Chcę ocenić wpływ komponentów cyfrowych na możliwość skorzystania z usługi</span></div></foreignObject></g></g><g class="node default default flowchart-label" id="flowchart-D2-38" data-node="true" data-id="D2" transform="translate(2978.6484375, 265.5)"><rect class="basic label-container" style="" rx="0" ry="0" x="-168.4765625" y="-16.5" width="336.953125" height="33"/><g class="label" style="" transform="translate(-160.9765625, -9)"><rect/><foreignObject width="321.953125" height="18"><div xmlns="http://www.w3.org/1999/xhtml" style="display: inline-block; white-space: nowrap;"><span class="nodeLabel">Ocena dostępności cyfrowej usługi publicznej</span></div></foreignObject></g></g><g class="node default default flowchart-label" id="flowchart-E1-40" data-node="true" data-id="E1" transform="translate(3548.7890625, 182.5)"><rect class="basic label-container" style="" rx="0" ry="0" x="-228.5234375" y="-16.5" width="457.046875" height="33"/><g class="label" style="" transform="translate(-221.0234375, -9)"><rect/><foreignObject width="442.046875" height="18"><div xmlns="http://www.w3.org/1999/xhtml" style="display: inline-block; white-space: nowrap;"><span class="nodeLabel">Chcę ocenić zdolność organizacji do zapewniania dostępności</span></div></foreignObject></g></g><g class="node default default flowchart-label" id="flowchart-E2-42" data-node="true" data-id="E2" transform="translate(3548.7890625, 265.5)"><rect class="basic label-container" style="" rx="0" ry="0" x="-111.5546875" y="-16.5" width="223.109375" height="33"/><g class="label" style="" transform="translate(-104.0546875, -9)"><rect/><foreignObject width="208.109375" height="18"><div xmlns="http://www.w3.org/1999/xhtml" style="display: inline-block; white-space: nowrap;"><span class="nodeLabel">Ocena dojrzałości organizacji</span></div></foreignObject></g></g><g class="node default default flowchart-label" id="flowchart-F-44" data-node="true" data-id="F" transform="translate(179.5859375, 431.5)"><rect class="basic label-container" style="" rx="0" ry="0" x="-152.828125" y="-16.5" width="305.65625" height="33"/><g class="label" style="" transform="translate(-145.328125, -9)"><rect/><foreignObject width="290.65625" height="18"><div xmlns="http://www.w3.org/1999/xhtml" style="display: inline-block; white-space: nowrap;"><span class="nodeLabel">Wynik: diagnoza problemów i priorytetów</span></div></foreignObject></g></g><g class="node default default flowchart-label" id="flowchart-G-46" data-node="true" data-id="G" transform="translate(587.7265625, 431.5)"><rect class="basic label-container" style="" rx="0" ry="0" x="-205.3125" y="-16.5" width="410.625" height="33"/><g class="label" style="" transform="translate(-197.8125, -9)"><rect/><foreignObject width="395.625" height="18"><div xmlns="http://www.w3.org/1999/xhtml" style="display: inline-block; white-space: nowrap;"><span class="nodeLabel">Wynik: poziom zgodności, np. do deklaracji dostępności</span></div></foreignObject></g></g><g class="node default default flowchart-label" id="flowchart-H-48" data-node="true" data-id="H" transform="translate(1116.84375, 431.5)"><rect class="basic label-container" style="" rx="0" ry="0" x="-273.8046875" y="-16.5" width="547.609375" height="33"/><g class="label" style="" transform="translate(-266.3046875, -9)"><rect/><foreignObject width="532.609375" height="18"><div xmlns="http://www.w3.org/1999/xhtml" style="display: inline-block; white-space: nowrap;"><span class="nodeLabel">Wynik: rekomendacja odbioru, odbioru warunkowego albo odmowy odbioru</span></div></foreignObject></g></g><g class="node default default flowchart-label" id="flowchart-I-50" data-node="true" data-id="I" transform="translate(1659.734375, 431.5)"><rect class="basic label-container" style="" rx="0" ry="0" x="-219.0859375" y="-16.5" width="438.171875" height="33"/><g class="label" style="" transform="translate(-211.5859375, -9)"><rect/><foreignObject width="423.171875" height="18"><div xmlns="http://www.w3.org/1999/xhtml" style="display: inline-block; white-space: nowrap;"><span class="nodeLabel">Wynik: kompleksowa ocena zgodności i materiał dowodowy</span></div></foreignObject></g></g><g class="node default default flowchart-label" id="flowchart-J-52" data-node="true" data-id="J" transform="translate(2089.2109375, 431.5)"><rect class="basic label-container" style="" rx="0" ry="0" x="-160.390625" y="-16.5" width="320.78125" height="33"/><g class="label" style="" transform="translate(-152.890625, -9)"><rect/><foreignObject width="305.78125" height="18"><div xmlns="http://www.w3.org/1999/xhtml" style="display: inline-block; white-space: nowrap;"><span class="nodeLabel">Wynik: bieżąca obserwacja stanu i trendów</span></div></foreignObject></g></g><g class="node default default flowchart-label" id="flowchart-K-54" data-node="true" data-id="K" transform="translate(2451.1953125, 348.5)"><rect class="basic label-container" style="" rx="0" ry="0" x="-222.2109375" y="-16.5" width="444.421875" height="33"/><g class="label" style="" transform="translate(-214.7109375, -9)"><rect/><foreignObject width="429.421875" height="18"><div xmlns="http://www.w3.org/1999/xhtml" style="display: inline-block; white-space: nowrap;"><span class="nodeLabel">Wynik: ocena dostępności dokumentu i rekomendacje zmian</span></div></foreignObject></g></g><g class="node default default flowchart-label" id="flowchart-L-56" data-node="true" data-id="L" transform="translate(2978.6484375, 348.5)"><rect class="basic label-container" style="" rx="0" ry="0" x="-169.7109375" y="-16.5" width="339.421875" height="33"/><g class="label" style="" transform="translate(-162.2109375, -9)"><rect/><foreignObject width="324.421875" height="18"><div xmlns="http://www.w3.org/1999/xhtml" style="display: inline-block; white-space: nowrap;"><span class="nodeLabel">Wynik: ocena barier w cyfrowej ścieżce usługi</span></div></foreignObject></g></g><g class="node default default flowchart-label" id="flowchart-M-58" data-node="true" data-id="M" transform="translate(3548.7890625, 348.5)"><rect class="basic label-container" style="" rx="0" ry="0" x="-191.953125" y="-16.5" width="383.90625" height="33"/><g class="label" style="" transform="translate(-184.453125, -9)"><rect/><foreignObject width="368.90625" height="18"><div xmlns="http://www.w3.org/1999/xhtml" style="display: inline-block; white-space: nowrap;"><span class="nodeLabel">Wynik: ocena dojrzałości i rekomendacje rozwojowe</span></div></foreignObject></g></g></g></g></g></svg>