<svg xmlns="http://www.w3.org/2000/svg" width="1200" height="800" viewBox="0 0 1200 800" role="img" aria-labelledby="title desc">
  <title id="title">Cykl życia TIK – Utrzymanie, monitorowanie i wycofanie</title>
  <desc id="desc">Infografika przedstawiająca kluczowe elementy utrzymania, monitorowania oraz wycofywania technologii z zachowaniem dostępności cyfrowej.</desc>

  <!-- Tło -->
  <rect x="0" y="0" width="1200" height="800" fill="#ffffff"/>

  <!-- Pasek nagłówka -->
  <rect x="0" y="0" width="1200" height="140" fill="#0A0F2C"/>

  <!-- Tytuł -->
  <text x="600" y="70" text-anchor="middle" font-family="system-ui, -apple-system, BlinkMacSystemFont, 'Segoe UI', sans-serif"
        font-size="40" font-weight="700" fill="#FFD900">
    Cykl życia TIK
  </text>
  <text x="600" y="115" text-anchor="middle" font-family="system-ui, -apple-system, BlinkMacSystemFont, 'Segoe UI', sans-serif"
        font-size="28" font-weight="600" fill="#FFFFFF">
    Utrzymanie, monitorowanie i wycofanie
  </text>

  <!-- Ikona sekcji (zębatka + strzałka) -->
  <circle cx="140" cy="235" r="55" fill="#FFD900"/>
  <path d="M140 190
           L150 200 L165 198 L170 210 L183 215 L180 228
           L190 240 L180 252 L183 265 L170 270 L165 282
           L150 280 L140 290 L130 280 L115 282 L110 270
           L97 265 L100 252 L90 240 L100 228 L97 215
           L110 210 L115 198 L130 200 Z"
        fill="none" stroke="#0A0F2C" stroke-width="3" stroke-linejoin="round"/>
  <polyline points="135,220 150,235 170,215"
            fill="none" stroke="#0A0F2C" stroke-width="4" stroke-linecap="round" stroke-linejoin="round"/>

  <!-- Panel treści -->
  <rect x="230" y="180" width="880" height="580" rx="16" ry="16" fill="#F8F8F8" stroke="#0A0F2C" stroke-width="2"/>

  <!-- Nagłówek panelu -->
  <text x="260" y="230" font-family="system-ui, -apple-system, BlinkMacSystemFont, 'Segoe UI', sans-serif"
        font-size="30" font-weight="700" fill="#0A0F2C">
    Kluczowe elementy
  </text>

  <!-- Linia oddzielająca -->
  <line x1="250" y1="245" x2="1090" y2="245" stroke="#0A0F2C" stroke-width="1.5"/>

  <!-- Lista punktów -->
  <!-- Punkt 1 -->
  <circle cx="270" cy="300" r="10" fill="#FFD900"/>
  <text x="300" y="308" font-family="system-ui, -apple-system, BlinkMacSystemFont, 'Segoe UI', sans-serif"
        font-size="24" fill="#0A0F2C">
    Regularne przeglądy dostępności po wdrożeniu
  </text>

  <!-- Punkt 2 -->
  <circle cx="270" cy="360" r="10" fill="#FFD900"/>
  <text x="300" y="368" font-family="system-ui, -apple-system, BlinkMacSystemFont, 'Segoe UI', sans-serif"
        font-size="24" fill="#0A0F2C">
    Monitoring zmian, aktualizacji i regresji
  </text>

  <!-- Punkt 3 -->
  <circle cx="270" cy="420" r="10" fill="#FFD900"/>
  <text x="300" y="428" font-family="system-ui, -apple-system, BlinkMacSystemFont, 'Segoe UI', sans-serif"
        font-size="24" fill="#0A0F2C">
    Reagowanie na zgłoszenia użytkowników i usuwanie barier
  </text>

  <!-- Punkt 4 -->
  <circle cx="270" cy="480" r="10" fill="#FFD900"/>
  <text x="300" y="488" font-family="system-ui, -apple-system, BlinkMacSystemFont, 'Segoe UI', sans-serif"
        font-size="24" fill="#0A0F2C">
    Procedury aktualizacji ACR/VPAT i dokumentacji zgodności
  </text>

  <!-- Punkt 5 -->
  <circle cx="270" cy="540" r="10" fill="#FFD900"/>
  <text x="300" y="548" font-family="system-ui, -apple-system, BlinkMacSystemFont, 'Segoe UI', sans-serif"
        font-size="24" fill="#0A0F2C">
    Kryteria wycofania niedostępnych technologii i migracja
  </text>

  <!-- Stopka -->
  <text x="260" y="640" font-family="system-ui, -apple-system, BlinkMacSystemFont, 'Segoe UI', sans-serif"
        font-size="18" fill="#555555">
    Dostępność jest utrzymywana przez cały okres używania technologii, a wycofanie odbywa się w sposób kontrolowany.
  </text>
</svg>
