<!--version="1.0" encoding="UTF-8" standalone="no"--><!-- Created with Inkscape (http://www.inkscape.org/) --><svg version="1.1" id="svg2" width="1100" height="1560" viewBox="0 0 1100 1560" sodipodi:docname="wymiar-personel-czysty.svg" inkscape:version="1.2.2 (732a01da63, 2022-12-09)" xmlns:inkscape="http://www.inkscape.org/namespaces/inkscape" xmlns:sodipodi="http://sodipodi.sourceforge.net/DTD/sodipodi-0.dtd" xmlns="http://www.w3.org/2000/svg"><sodipodi:namedview id="namedview4" pagecolor="#ffffff" bordercolor="#000000" borderopacity="0.25" inkscape:showpageshadow="2" inkscape:pageopacity="0.0" inkscape:pagecheckerboard="0" inkscape:deskcolor="#d1d1d1" showgrid="false" inkscape:zoom="0.75166164" inkscape:cx="526.1676" inkscape:cy="1102.2247" inkscape:window-width="1920" inkscape:window-height="991" inkscape:window-x="-9" inkscape:window-y="-9" inkscape:window-maximized="1" inkscape:current-layer="g8"/><g inkscape:groupmode="layer" inkscape:label="Image" id="g8"><rect style="fill: rgb(249, 249, 248); fill-opacity: 1; stroke-width: 1.04295; stroke-linecap: round; stroke-linejoin: round;" id="rect7398" width="1100" height="1560" x="0" y="0" ry="0"/><text xml:space="preserve" style="font-style: normal; font-variant-alternates: normal; font-variant-caps: normal; font-variant-east-asian: normal; font-variant-ligatures: normal; font-variant-numeric: normal; font-variant-position: normal; font-weight: bold; font-stretch: normal; font-size: 128px; line-height: 0.9; font-family: Aptos; text-align: center; text-anchor: middle; fill: rgb(3, 48, 100); fill-opacity: 1; stroke-linecap: round; stroke-linejoin: round;" x="545.875" y="126.689" id="text6567"><tspan sodipodi:role="line" id="tspan6565" x="545.875" y="126.689">Personel</tspan></text><text xml:space="preserve" style="font-style: normal; font-variant-alternates: normal; font-variant-caps: normal; font-variant-east-asian: normal; font-variant-ligatures: normal; font-variant-numeric: normal; font-variant-position: normal; font-weight: bold; font-stretch: condensed; font-size: 42.6667px; line-height: 0.9; font-family: Arial; text-align: center; text-anchor: middle; fill: rgb(3, 48, 100); fill-opacity: 1; stroke-linecap: round; stroke-linejoin: round;" x="550.833" y="190.602" id="text6675"><tspan sodipodi:role="line" id="tspan6673" x="550.833" y="190.602" style="font-style: normal; font-variant-alternates: normal; font-variant-caps: normal; font-variant-east-asian: normal; font-variant-ligatures: normal; font-variant-numeric: normal; font-variant-position: normal; font-weight: bold; font-stretch: normal; font-size: 42.6667px; font-family: Arial;">Tworzenie włączającego środowiska pracy</tspan><tspan sodipodi:role="line" x="550.833" y="229.002" id="tspan7074" style="font-style: normal; font-variant-alternates: normal; font-variant-caps: normal; font-variant-east-asian: normal; font-variant-ligatures: normal; font-variant-numeric: normal; font-variant-position: normal; font-weight: bold; font-stretch: normal; font-size: 42.6667px; font-family: Arial;">w którym doświadczenia pracowników</tspan><tspan sodipodi:role="line" x="550.833" y="267.402" id="tspan7076" style="font-style: normal; font-variant-alternates: normal; font-variant-caps: normal; font-variant-east-asian: normal; font-variant-ligatures: normal; font-variant-numeric: normal; font-variant-position: normal; font-weight: bold; font-stretch: normal; font-size: 42.6667px; font-family: Arial;">są wykorzystywane </tspan><tspan sodipodi:role="line" x="550.833" y="305.802" style="font-style: normal; font-variant-alternates: normal; font-variant-caps: normal; font-variant-east-asian: normal; font-variant-ligatures: normal; font-variant-numeric: normal; font-variant-position: normal; font-weight: bold; font-stretch: normal; font-size: 42.6667px; font-family: Arial;" id="tspan8218">w doskonaleniu dostępności cyfrowej</tspan></text><g id="g7811" transform="translate(1157.7082,51.667853)"><rect style="fill: rgb(255, 255, 255); fill-opacity: 1; stroke-linecap: round; stroke-linejoin: round;" id="rect7752" width="1023.509" height="269.047" x="-1119.463" y="301.032"/><path id="path3108" style="fill: rgb(3, 48, 100); fill-opacity: 1; stroke-width: 0.711035; stroke-linecap: round; stroke-linejoin: round;" d="M-1004.37 328.374a74.015 75.345 0 0 0-74.013 75.345 74.015 75.345 0 0 0 2.41 18.574 24.882 24.882 0 0 1 17.245-6.904h10.074c4.207.312 3.595 7.96 0 7.824h-9.862c-6.19 0-11.566 3.313-14.502 8.258a74.015 75.345 0 0 0 33.44 38.4v-37.45c0-19.505 15.703-35.208 35.21-35.208 19.505 0 35.209 15.703 35.209 35.208v37.45a74.015 75.345 0 0 0 33.446-38.393c-2.934-4.95-8.313-8.266-14.507-8.266h-9.862c-3.596.136-4.208-7.512 0-7.824h10.073a24.882 24.882 0 0 1 17.256 6.914 74.015 75.345 0 0 0 2.4-18.585 74.015 75.345 0 0 0-74.015-75.346zm.002 23.861a21.567 21.567 0 0 1 21.566 21.568 21.567 21.567 0 0 1-21.566 21.566 21.567 21.567 0 0 1-21.567-21.567 21.567 21.567 0 0 1 21.567-21.568zm0 7.825a13.743 13.743 0 0 0-13.743 13.743 13.743 13.743 0 0 0 13.742 13.742 13.743 13.743 0 0 0 13.742-13.742 13.743 13.743 0 0 0-13.742-13.743zm-48.248 22.629a15.548 15.548 0 0 1 15.549 15.546 15.548 15.548 0 0 1-15.549 15.548 15.548 15.548 0 0 1-15.548-15.548 15.548 15.548 0 0 1 15.548-15.547zm96.494-.001a15.548 15.548 0 0 1 15.548 15.546 15.548 15.548 0 0 1-15.548 15.548 15.548 15.548 0 0 1-15.549-15.548 15.548 15.548 0 0 1 15.548-15.547zm-96.494 5.715a9.83 9.83 0 0 0-9.83 9.831 9.83 9.83 0 0 0 9.83 9.83 9.83 9.83 0 0 0 9.83-9.83 9.83 9.83 0 0 0-9.83-9.83zm96.494 0a9.83 9.83 0 0 0-9.83 9.831 9.83 9.83 0 0 0 9.83 9.83 9.83 9.83 0 0 0 9.83-9.83 9.83 9.83 0 0 0-9.83-9.83zm-48.453 17.462a25.616 25.616 0 0 0-25.672 25.672v42.634a74.015 75.345 0 0 0 25.877 4.89 74.015 75.345 0 0 0 26.665-5.161v-42.364a25.615 25.615 0 0 0-25.67-25.673z"/><text x="-803.075" y="407.87" font-family="Arial, sans-serif" font-size="13px" fill="#333333" id="text6143" style="font-style: normal; font-variant-alternates: normal; font-variant-caps: normal; font-variant-east-asian: normal; font-variant-ligatures: normal; font-variant-numeric: normal; font-variant-position: normal; font-weight: normal; font-stretch: normal; font-size: 29.3333px; font-family: Arial, sans-serif; fill: rgb(51, 51, 51);"><tspan sodipodi:role="line" id="tspan7130" x="-803.075" y="407.87" style="font-style: normal; font-variant-alternates: normal; font-variant-caps: normal; font-variant-east-asian: normal; font-variant-ligatures: normal; font-variant-numeric: normal; font-variant-position: normal; font-weight: normal; font-stretch: normal; font-size: 29.3333px; font-family: Arial, sans-serif;">Polityka równego traktowania i dostępnej rekrutacji</tspan><tspan sodipodi:role="line" id="tspan7132" x="-803.075" y="444.537" style="font-style: normal; font-variant-alternates: normal; font-variant-caps: normal; font-variant-east-asian: normal; font-variant-ligatures: normal; font-variant-numeric: normal; font-variant-position: normal; font-weight: normal; font-stretch: normal; font-size: 29.3333px; font-family: Arial, sans-serif;">Dostępne narzędzia pracy i dokumenty kadrowe</tspan><tspan sodipodi:role="line" x="-803.075" y="481.204" id="tspan7134" style="font-style: normal; font-variant-alternates: normal; font-variant-caps: normal; font-variant-east-asian: normal; font-variant-ligatures: normal; font-variant-numeric: normal; font-variant-position: normal; font-weight: normal; font-stretch: normal; font-size: 29.3333px; font-family: Arial, sans-serif;">Procedury zgłaszania i realizacji usprawnień</tspan><tspan sodipodi:role="line" x="-803.075" y="517.87" id="tspan7136" style="font-style: normal; font-variant-alternates: normal; font-variant-caps: normal; font-variant-east-asian: normal; font-variant-ligatures: normal; font-variant-numeric: normal; font-variant-position: normal; font-weight: normal; font-stretch: normal; font-size: 29.3333px; font-family: Arial, sans-serif;">Organizacyjne wsparcie różnorodności (np. ERG)</tspan></text><text xml:space="preserve" style="font-style: normal; font-variant-alternates: normal; font-variant-caps: normal; font-variant-east-asian: normal; font-variant-ligatures: normal; font-variant-numeric: normal; font-variant-position: normal; font-weight: normal; font-stretch: normal; font-size: 29.3333px; line-height: 0.9; font-family: Arial, sans-serif; text-align: center; text-anchor: middle; fill: rgb(3, 48, 100); fill-opacity: 1; stroke-linecap: round; stroke-linejoin: round;" x="-573.018" y="359.437" id="text7248"><tspan sodipodi:role="line" id="tspan7246" x="-573.018" y="359.437" style="font-style: normal; font-variant-alternates: normal; font-variant-caps: normal; font-variant-east-asian: normal; font-variant-ligatures: normal; font-variant-numeric: normal; font-variant-position: normal; font-weight: bold; font-stretch: normal; font-size: 42.6667px; font-family: Arial, sans-serif; fill: rgb(3, 48, 100); fill-opacity: 1;">Inkluzywne środowisko pracy</tspan></text><rect style="fill: rgb(3, 48, 100); fill-opacity: 1; stroke-width: 1.28; stroke-linecap: round; stroke-linejoin: round;" id="rect7659" width="15.052" height="15.052" x="-843.36" y="390.512"/><rect style="fill: rgb(3, 48, 100); fill-opacity: 1; stroke-width: 1.28; stroke-linecap: round; stroke-linejoin: round;" id="rect7730" width="15.052" height="15.052" x="-843.36" y="423.907"/><rect style="fill: rgb(3, 48, 100); fill-opacity: 1; stroke-width: 1.28; stroke-linecap: round; stroke-linejoin: round;" id="rect7732" width="15.052" height="15.052" x="-843.36" y="462.477"/><rect style="fill: rgb(3, 48, 100); fill-opacity: 1; stroke-width: 1.28; stroke-linecap: round; stroke-linejoin: round;" id="rect7734" width="15.052" height="15.052" x="-843.36" y="499.636"/></g><rect style="fill: rgb(255, 255, 255); fill-opacity: 1; stroke-width: 1.21471; stroke-linecap: round; stroke-linejoin: round;" id="rect7754" width="1023.509" height="396.986" x="38.246" y="640.095"/><path id="rect3789" style="fill: rgb(4, 48, 100); fill-opacity: 1; stroke-width: 0.279834; stroke-linecap: round; stroke-linejoin: round;" d="M106.106 667.335a9.43 9.43 0 0 0-9.452 9.451v122.58a9.43 9.43 0 0 0 9.452 9.452H204.2a9.43 9.43 0 0 0 9.45-9.451V690.114l-23.604-22.78zm30.143 17.204a16.12 16.12 0 0 1 16.119 16.12 16.12 16.12 0 0 1-16.121 16.12 16.12 16.12 0 0 1-16.122-16.12 16.12 16.12 0 0 1 16.12-16.12zm-.001 5.848a10.272 10.272 0 0 0-10.274 10.272 10.272 10.272 0 0 0 10.273 10.272 10.272 10.272 0 0 0 10.27-10.272 10.272 10.272 0 0 0-10.271-10.272zm34.61 11.328h24.982a3.702 3.702 0 0 1 3.71 3.71 3.702 3.702 0 0 1-3.71 3.71H170.86a3.702 3.702 0 0 1-3.71-3.71 3.702 3.702 0 0 1 3.71-3.71zm-34.612 16.444a26.26 26.26 0 0 1 26.318 26.317v3.75c-.057-.001-.112-.01-.169-.01h-6.218v-4.4a19.147 19.147 0 0 0-19.19-19.19h-.896a19.147 19.147 0 0 0-19.189 19.19v4.4h-6.975v-3.74a26.26 26.26 0 0 1 26.318-26.318zm34.612 1.365h24.982a3.702 3.702 0 0 1 3.71 3.71 3.702 3.702 0 0 1-3.71 3.71H170.86a3.702 3.702 0 0 1-3.71-3.71 3.702 3.702 0 0 1 3.71-3.71zm11.882 32.526a23.217 23.217 0 0 1 23.217 23.218 23.217 23.217 0 0 1-23.218 23.217 23.217 23.217 0 0 1-23.217-23.217 23.217 23.217 0 0 1 23.217-23.217zm0 5.538a17.68 17.68 0 0 0-17.68 17.68 17.68 17.68 0 0 0 17.68 17.68 17.68 17.68 0 0 0 17.68-17.68 17.68 17.68 0 0 0-17.68-17.68zm-69.639 1.76h37.845a3.085 3.085 0 0 1 3.092 3.092 3.085 3.085 0 0 1-3.092 3.092h-37.845a3.085 3.085 0 0 1-3.091-3.092 3.085 3.085 0 0 1 3.091-3.092zm77.293 5.572c.321.001.645.096.93.29l1.378.94c.76.52.956 1.557.437 2.318L181.925 784.9c-.52.76-1.548.944-2.298.409l-6.874-4.905a1.668 1.668 0 0 1-.388-2.326l.968-1.358a1.668 1.668 0 0 1 2.326-.39l4.073 2.906 9.28-13.59c.323-.476.85-.73 1.386-.728zm-77.293 12.98h37.845a3.085 3.085 0 0 1 3.092 3.092 3.085 3.085 0 0 1-3.092 3.092h-37.845a3.085 3.085 0 0 1-3.091-3.092 3.085 3.085 0 0 1 3.091-3.092z"/><text x="355.965" y="758.46" font-family="Arial, sans-serif" font-size="13px" fill="#333333" id="text7148" style="font-style: normal; font-variant-alternates: normal; font-variant-caps: normal; font-variant-east-asian: normal; font-variant-ligatures: normal; font-variant-numeric: normal; font-variant-position: normal; font-weight: normal; font-stretch: normal; font-size: 29.3333px; font-family: Arial, sans-serif; fill: rgb(51, 51, 51);"><tspan sodipodi:role="line" x="355.965" y="758.46" id="tspan7146" style="font-style: normal; font-variant-alternates: normal; font-variant-caps: normal; font-variant-east-asian: normal; font-variant-ligatures: normal; font-variant-numeric: normal; font-variant-position: normal; font-weight: normal; font-stretch: normal; font-size: 29.3333px; font-family: Arial, sans-serif;">Dostępna rekrutacja i wolne od barier</tspan><tspan sodipodi:role="line" x="355.965" y="795.127" style="font-style: normal; font-variant-alternates: normal; font-variant-caps: normal; font-variant-east-asian: normal; font-variant-ligatures: normal; font-variant-numeric: normal; font-variant-position: normal; font-weight: normal; font-stretch: normal; font-size: 29.3333px; font-family: Arial, sans-serif;" id="tspan7159">materiały rekrutacyjne</tspan><tspan sodipodi:role="line" x="355.965" y="831.794" style="font-style: normal; font-variant-alternates: normal; font-variant-caps: normal; font-variant-east-asian: normal; font-variant-ligatures: normal; font-variant-numeric: normal; font-variant-position: normal; font-weight: normal; font-stretch: normal; font-size: 29.3333px; font-family: Arial, sans-serif;" id="tspan7161">Dostępny onboardng (materiały, platformy,</tspan><tspan sodipodi:role="line" x="355.965" y="868.46" style="font-style: normal; font-variant-alternates: normal; font-variant-caps: normal; font-variant-east-asian: normal; font-variant-ligatures: normal; font-variant-numeric: normal; font-variant-position: normal; font-weight: normal; font-stretch: normal; font-size: 29.3333px; font-family: Arial, sans-serif;" id="tspan7163">instrukcje</tspan><tspan sodipodi:role="line" x="355.965" y="905.127" style="font-style: normal; font-variant-alternates: normal; font-variant-caps: normal; font-variant-east-asian: normal; font-variant-ligatures: normal; font-variant-numeric: normal; font-variant-position: normal; font-weight: normal; font-stretch: normal; font-size: 29.3333px; font-family: Arial, sans-serif;" id="tspan7165">Równy dostęp do szkoleń i rozwoju</tspan><tspan sodipodi:role="line" x="355.965" y="941.794" style="font-style: normal; font-variant-alternates: normal; font-variant-caps: normal; font-variant-east-asian: normal; font-variant-ligatures: normal; font-variant-numeric: normal; font-variant-position: normal; font-weight: normal; font-stretch: normal; font-size: 29.3333px; font-family: Arial, sans-serif;" id="tspan7167">zawodowego</tspan><tspan sodipodi:role="line" x="355.965" y="978.46" style="font-style: normal; font-variant-alternates: normal; font-variant-caps: normal; font-variant-east-asian: normal; font-variant-ligatures: normal; font-variant-numeric: normal; font-variant-position: normal; font-weight: normal; font-stretch: normal; font-size: 29.3333px; font-family: Arial, sans-serif;" id="tspan7169">Uwzględnienie odpowiedzialności za dostępność</tspan><tspan sodipodi:role="line" x="355.965" y="1015.127" style="font-style: normal; font-variant-alternates: normal; font-variant-caps: normal; font-variant-east-asian: normal; font-variant-ligatures: normal; font-variant-numeric: normal; font-variant-position: normal; font-weight: normal; font-stretch: normal; font-size: 29.3333px; font-family: Arial, sans-serif;" id="tspan7171">w ocenach pracowniczych</tspan></text><text xml:space="preserve" style="font-style: normal; font-variant-alternates: normal; font-variant-caps: normal; font-variant-east-asian: normal; font-variant-ligatures: normal; font-variant-numeric: normal; font-variant-position: normal; font-weight: normal; font-stretch: normal; font-size: 29.3333px; line-height: 0.9; font-family: Arial, sans-serif; text-align: center; text-anchor: middle; fill: rgb(3, 48, 100); fill-opacity: 1; stroke-linecap: round; stroke-linejoin: round;" x="505.086" y="697.876" id="text7390"><tspan sodipodi:role="line" id="tspan7388" x="505.086" y="697.876" style="font-style: normal; font-variant-alternates: normal; font-variant-caps: normal; font-variant-east-asian: normal; font-variant-ligatures: normal; font-variant-numeric: normal; font-variant-position: normal; font-weight: bold; font-stretch: normal; font-size: 42.6667px; font-family: Arial, sans-serif; fill: rgb(3, 48, 100); fill-opacity: 1;">Dostępne procesy HR</tspan></text><rect style="fill: rgb(3, 48, 100); fill-opacity: 1; stroke-width: 1.28; stroke-linecap: round; stroke-linejoin: round;" id="rect7736" width="15.052" height="15.052" x="314.348" y="741.227"/><rect style="fill: rgb(3, 48, 100); fill-opacity: 1; stroke-width: 1.28; stroke-linecap: round; stroke-linejoin: round;" id="rect7738" width="15.052" height="15.052" x="314.348" y="813.663"/><rect style="fill: rgb(3, 48, 100); fill-opacity: 1; stroke-width: 1.28; stroke-linecap: round; stroke-linejoin: round;" id="rect7740" width="15.052" height="15.052" x="314.348" y="884.217"/><rect style="fill: rgb(3, 48, 100); fill-opacity: 1; stroke-width: 1.28; stroke-linecap: round; stroke-linejoin: round;" id="rect7742" width="15.052" height="15.052" x="314.348" y="959.475"/><rect style="fill: rgb(255, 255, 255); fill-opacity: 1; stroke-width: 1.33012; stroke-linecap: round; stroke-linejoin: round;" id="rect7756" width="1023.509" height="476.007" x="38.246" y="1055.429"/><path id="path5833" style="fill: rgb(3, 48, 100); fill-opacity: 1; stroke-width: 0.376678;" d="M104.906 1081.423a18.552 18.552 0 0 0-18.552 18.552 18.552 18.552 0 0 0 18.552 18.552 18.552 18.552 0 0 0 18.552-18.552 18.552 18.552 0 0 0-18.552-18.552zm104.892 0-78.114.566c-5.602.097-2.712 4.373-1.925 7.613 2.413 5.886 1.75 13.87-.573 19.913-1.146 2.63-1.282 3.535-.745 4.936 1.925 2.802 8.652 7.69 11.968 10.477.272 0 1.557-1.31 2.854-2.911 8.788-10.844 13.074-12.629 20.75-8.642 2.401 1.247 3.834 2.761 5.315 5.616.837 1.614.965 2.335.965 5.429 0 5.08-.687 6.32-7.627 13.777-3.056 3.282-5.338 6.306-5.556 6.502-1.933 1.727-.413 3.91 2.266 3.54l47.283.168c3.475.028 5.482-2.062 5.447-4.581v-60.194c-.035-1.095-1.222-2.19-2.31-2.213zm-51.599 35.973c-5.618.099-11.588 10.777-16.825 14.378-.842.52-1.55.686-2.215.52-3.876-1.338-7.829-8.32-12.067-10.005-13.25-3.145-37.467-1.878-41.738-.179l-2.188 1.038c-3.923 1.86-7.15 5.594-8.702 10.068-.503 1.45-.59 4.49-.594 21.024-.009 21.558.023 21.831 2.493 24.225 1.224 1.187 1.478 1.272 3.833 1.269 3.045 0 4.51-.897 5.819-3.554.83-1.685.848-2.015.948-17.162.034-5.152.096-9.878.162-12.905.117-5.248 5.511-4.72 4.651-.229l.07 69.144c-.082 9.348 12.115 7.84 12.141-.01-.027-10.586-.173-23.435.165-33.09.18-3.834 5.692-3.395 5.766.132.027 2.197-.099 20.925.195 32.813-.34 8.684 11.395 8.466 11.707.149l.366-68.913c.034-1.15-.524-8.925 4.71-5.787 2.214 1.578 4.733 4.413 6.86 5.09 2.197 1.054 2.8 1.173 5.84 1.158 3.147-.014 3.606-.12 6.403-1.47 6.697-3.277 13.064-11.313 17.897-17.287 2.249-4.547.05-8.898-5.698-10.418zm-4.528 59.982a11.273 11.273 0 0 0-11.273 11.273 11.273 11.273 0 0 0 11.272 11.274 11.273 11.273 0 0 0 11.273-11.273 11.273 11.273 0 0 0-11.273-11.272zm39.738 0a11.273 11.273 0 0 0-11.273 11.273 11.273 11.273 0 0 0 11.273 11.274 11.273 11.273 0 0 0 11.274-11.273 11.273 11.273 0 0 0-11.274-11.272zm-47.96 25.788a10.145 10.145 0 0 0-10.167 10.167v8.151h36.779v-8.151a10.145 10.145 0 0 0-10.167-10.167zm39.738 0a10.145 10.145 0 0 0-10.167 10.167v8.151h36.78v-8.151a10.145 10.145 0 0 0-10.167-10.167z"/><text x="355.965" y="1202.52" font-family="Arial, sans-serif" font-size="13px" fill="#333333" id="text7189" style="font-style: normal; font-variant-alternates: normal; font-variant-caps: normal; font-variant-east-asian: normal; font-variant-ligatures: normal; font-variant-numeric: normal; font-variant-position: normal; font-weight: normal; font-stretch: normal; font-size: 29.3333px; font-family: Arial, sans-serif; fill: rgb(51, 51, 51);"><tspan sodipodi:role="line" x="355.965" y="1202.52" style="font-style: normal; font-variant-alternates: normal; font-variant-caps: normal; font-variant-east-asian: normal; font-variant-ligatures: normal; font-variant-numeric: normal; font-variant-position: normal; font-weight: normal; font-stretch: normal; font-size: 29.3333px; font-family: Arial, sans-serif;" id="tspan7187">Pracownicy znają swoje obowiązki w zakresie</tspan><tspan sodipodi:role="line" x="355.965" y="1239.187" style="font-style: normal; font-variant-alternates: normal; font-variant-caps: normal; font-variant-east-asian: normal; font-variant-ligatures: normal; font-variant-numeric: normal; font-variant-position: normal; font-weight: normal; font-stretch: normal; font-size: 29.3333px; font-family: Arial, sans-serif;" id="tspan7226">dostępności</tspan><tspan sodipodi:role="line" x="355.965" y="1275.853" style="font-style: normal; font-variant-alternates: normal; font-variant-caps: normal; font-variant-east-asian: normal; font-variant-ligatures: normal; font-variant-numeric: normal; font-variant-position: normal; font-weight: normal; font-stretch: normal; font-size: 29.3333px; font-family: Arial, sans-serif;" id="tspan7228">Osoby z niepełnosprawnościami uczestniczą</tspan><tspan sodipodi:role="line" x="355.965" y="1312.52" style="font-style: normal; font-variant-alternates: normal; font-variant-caps: normal; font-variant-east-asian: normal; font-variant-ligatures: normal; font-variant-numeric: normal; font-variant-position: normal; font-weight: normal; font-stretch: normal; font-size: 29.3333px; font-family: Arial, sans-serif;" id="tspan7230">w zarządzaniu dostępnością cyfrową,</tspan><tspan sodipodi:role="line" x="355.965" y="1349.187" style="font-style: normal; font-variant-alternates: normal; font-variant-caps: normal; font-variant-east-asian: normal; font-variant-ligatures: normal; font-variant-numeric: normal; font-variant-position: normal; font-weight: normal; font-stretch: normal; font-size: 29.3333px; font-family: Arial, sans-serif;" id="tspan7238">w opiniowaniu i testowaniu technologii</tspan><tspan sodipodi:role="line" x="355.965" y="1385.853" style="font-style: normal; font-variant-alternates: normal; font-variant-caps: normal; font-variant-east-asian: normal; font-variant-ligatures: normal; font-variant-numeric: normal; font-variant-position: normal; font-weight: normal; font-stretch: normal; font-size: 29.3333px; font-family: Arial, sans-serif;" id="tspan8346">Międzydziałowa współpraca w obszarze dostępności</tspan><tspan sodipodi:role="line" x="355.965" y="1422.52" style="font-style: normal; font-variant-alternates: normal; font-variant-caps: normal; font-variant-east-asian: normal; font-variant-ligatures: normal; font-variant-numeric: normal; font-variant-position: normal; font-weight: normal; font-stretch: normal; font-size: 29.3333px; font-family: Arial, sans-serif;" id="tspan7240">(kadry, IT, komunikacja, zakupy)</tspan><tspan sodipodi:role="line" x="355.965" y="1459.187" style="font-style: normal; font-variant-alternates: normal; font-variant-caps: normal; font-variant-east-asian: normal; font-variant-ligatures: normal; font-variant-numeric: normal; font-variant-position: normal; font-weight: normal; font-stretch: normal; font-size: 29.3333px; font-family: Arial, sans-serif;" id="tspan7242">Określone role odpowiedzialne za dostępność</tspan><tspan sodipodi:role="line" x="355.965" y="1495.853" style="font-style: normal; font-variant-alternates: normal; font-variant-caps: normal; font-variant-east-asian: normal; font-variant-ligatures: normal; font-variant-numeric: normal; font-variant-position: normal; font-weight: normal; font-stretch: normal; font-size: 29.3333px; font-family: Arial, sans-serif;" id="tspan7244">w procesach i zespołach</tspan></text><text xml:space="preserve" style="font-style: normal; font-variant-alternates: normal; font-variant-caps: normal; font-variant-east-asian: normal; font-variant-ligatures: normal; font-variant-numeric: normal; font-variant-position: normal; font-weight: normal; font-stretch: normal; font-size: 29.3333px; line-height: 0.9; font-family: Arial, sans-serif; text-align: start; text-anchor: start; fill: rgb(3, 48, 100); fill-opacity: 1; stroke-linecap: round; stroke-linejoin: round;" x="286.023" y="1112.485" id="text7394"><tspan sodipodi:role="line" id="tspan7392" x="286.023" y="1112.485" style="font-style: normal; font-variant-alternates: normal; font-variant-caps: normal; font-variant-east-asian: normal; font-variant-ligatures: normal; font-variant-numeric: normal; font-variant-position: normal; font-weight: bold; font-stretch: normal; font-size: 42.6667px; font-family: Arial, sans-serif; text-align: start; text-anchor: start; fill: rgb(3, 48, 100); fill-opacity: 1;">Zaangażowanie pracowników </tspan><tspan sodipodi:role="line" x="286.023" y="1150.885" style="font-style: normal; font-variant-alternates: normal; font-variant-caps: normal; font-variant-east-asian: normal; font-variant-ligatures: normal; font-variant-numeric: normal; font-variant-position: normal; font-weight: bold; font-stretch: normal; font-size: 42.6667px; font-family: Arial, sans-serif; text-align: start; text-anchor: start; fill: rgb(3, 48, 100); fill-opacity: 1;" id="tspan7396">w dostępność cyfrową</tspan></text><rect style="fill: rgb(3, 48, 100); fill-opacity: 1; stroke-width: 1.28; stroke-linecap: round; stroke-linejoin: round;" id="rect7744" width="15.052" height="15.052" x="314.348" y="1183.968"/><rect style="fill: rgb(3, 48, 100); fill-opacity: 1; stroke-width: 1.28; stroke-linecap: round; stroke-linejoin: round;" id="rect7746" width="15.052" height="15.052" x="314.348" y="1257.815"/><rect style="fill: rgb(3, 48, 100); fill-opacity: 1; stroke-width: 1.28; stroke-linecap: round; stroke-linejoin: round;" id="rect7748" width="15.052" height="15.052" x="314.348" y="1367.409"/><rect style="fill: rgb(3, 48, 100); fill-opacity: 1; stroke-width: 1.28; stroke-linecap: round; stroke-linejoin: round;" id="rect7750" width="15.052" height="15.052" x="314.348" y="1440.786"/></g></svg>